<?xml version="1.0" encoding="UTF-8"?>
<svg width="148px" height="16px" viewBox="0 0 148 16" version="1.1" xmlns="http://www.w3.org/2000/svg" xmlns:xlink="http://www.w3.org/1999/xlink">
    <!-- Generator: Sketch 48.2 (47327) - http://www.bohemiancoding.com/sketch -->
    <title>Page 1</title>
    <desc>Created with Sketch.</desc>
    <defs>
        <polygon id="path-1" points="0.0588973965 0.0550175439 12.2716723 0.0550175439 12.2716723 15.999986 0.0588973965 15.999986"></polygon>
    </defs>
    <g id="edstennett/index" stroke="none" stroke-width="1" fill="none" fill-rule="evenodd" transform="translate(-40.000000, -24.000000)">
        <g id="nav" transform="translate(40.000000, 24.000000)">
            <g id="Page-1">
                <polygon id="Fill-1" fill="#454B54" points="0 0.219178082 0 15.6712329 11.7260274 15.6712329 11.7260274 12.6432878 3.36104136 12.6432878 3.36104136 9.40003956 10.6199377 9.40003956 10.6199377 6.38285963 3.36104136 6.38285963 3.36104136 3.35477474 11.6081597 3.35477474 11.6081597 0.219178082"></polygon>
                <path d="M19.9680581,12.7331088 C20.658671,12.7331088 21.2916045,12.6223719 21.8671386,12.4008982 C22.4425327,12.1795649 22.9335077,11.859986 23.3399235,11.4424421 C23.7463394,11.0248982 24.0630161,10.5328281 24.2895338,9.96637193 C24.5161915,9.39991579 24.6294503,8.76805614 24.6294503,8.07121404 L24.6294503,8.02742456 C24.6294503,7.3450386 24.5161915,6.71317895 24.2895338,6.13212632 C24.0630161,5.55121404 23.7463394,5.05381053 23.3399235,4.63991579 C22.9335077,4.22602105 22.4425327,3.90279298 21.8671386,3.67037193 C21.2916045,3.43809123 20.658671,3.3218807 19.9680581,3.3218807 L17.335245,3.3218807 L17.335245,12.7331088 L19.9680581,12.7331088 Z M13.92544,0.271354386 L19.9572782,0.271354386 C21.1657458,0.271354386 22.2753744,0.467845614 23.2860241,0.860968421 C24.2966737,1.25409123 25.1652248,1.79668772 25.8918174,2.48889825 C26.6184099,3.18124912 27.1813442,3.99626667 27.5806201,4.93367018 C27.979896,5.87121404 28.1793939,6.88805614 28.1793939,7.98419649 L28.1793939,8.02742456 C28.1793939,9.12370526 27.979896,10.1441965 27.5806201,11.0888982 C27.1813442,12.0337404 26.6184099,12.8521263 25.8918174,13.5443368 C25.1652248,14.2366877 24.2966737,14.7829333 23.2860241,15.183214 C22.2753744,15.5834947 21.1657458,15.7834947 19.9572782,15.7834947 L13.92544,15.7834947 L13.92544,0.271354386 Z" id="Fill-2" fill="#454B54"></path>
                <g id="Group-6" transform="translate(34.948003, 0.000000)">
                    <mask id="mask-2" fill="white">
                        <use xlink:href="#path-1"></use>
                    </mask>
                    <g id="Clip-5"></g>
                    <path d="M2.06591683,11.1104421 C2.76968962,11.6874246 3.49334221,12.1453895 4.23687459,12.4841965 C4.98026697,12.8232842 5.79379864,12.9926877 6.67732958,12.9926877 C7.38376235,12.9926877 7.93353671,12.8628632 8.32637269,12.6033544 C8.71920866,12.3435649 8.91576665,11.9866526 8.91576665,11.5323368 L8.91576665,11.4891088 C8.91576665,11.2655298 8.87432707,11.0690386 8.79144792,10.8994947 C8.70842877,10.7302316 8.55345036,10.5713544 8.32637269,10.4235649 C8.09929502,10.2759158 7.78219826,10.127986 7.37480244,9.97991579 C6.96754661,9.83226667 6.43933202,9.67535439 5.79057867,9.50945965 C5.0163866,9.32195088 4.3138738,9.10917895 3.68290027,8.87128421 C3.05206673,8.63338947 2.51615222,8.3413193 2.07529674,7.99493333 C1.63444125,7.64882807 1.29214476,7.21612632 1.04840726,6.69696842 C0.804669755,6.17767018 0.682871003,5.53598596 0.682871003,4.77135439 L0.682871003,4.72812632 C0.682871003,4.02145965 0.815309646,3.38314386 1.08074693,2.81345965 C1.34604421,2.24391579 1.71718041,1.75170526 2.19401552,1.33682807 C2.67085063,0.922231579 3.23910481,0.605038596 3.89877805,0.384968421 C4.55859129,0.165038596 5.28644384,0.0550035088 6.08247568,0.0550035088 C7.21660406,0.0550035088 8.25567341,0.224407018 9.19954374,0.563494737 C10.1434141,0.902442105 11.0139252,1.3893193 11.810657,2.02384561 L10.052415,4.59830175 C9.36250207,4.12237193 8.686869,3.74749474 8.02579577,3.47324912 C7.36458254,3.19928421 6.70252933,3.06230175 6.03921612,3.06230175 C5.37604292,3.06230175 4.87666803,3.19212632 4.54137147,3.45163509 C4.2062149,3.71128421 4.03863662,4.03226667 4.03863662,4.41444211 L4.03863662,4.45781053 C4.03863662,4.71030175 4.08721612,4.92826667 4.18465512,5.11212632 C4.28195413,5.29612632 4.45681234,5.46202105 4.70908975,5.60981053 C4.96136717,5.7576 5.30562364,5.89837193 5.74185917,6.03170526 C6.1779547,6.16517895 6.72772907,6.32209123 7.39104227,6.5021614 C8.16481434,6.71142456 8.85654726,6.94398596 9.46582101,7.19998596 C10.0749548,7.45598596 10.5891695,7.7661614 11.0084652,8.13023158 C11.4276209,8.49444211 11.7431777,8.91998596 11.9545755,9.40672281 C12.1659733,9.89345965 12.2716723,10.4759158 12.2716723,11.1538105 L12.2716723,11.1968982 C12.2716723,11.9613895 12.1316737,12.6430737 11.8519566,13.2415298 C11.5722394,13.8401263 11.1831834,14.3431439 10.6846485,14.7505825 C10.1861136,15.1580211 9.59251972,15.4681965 8.90414677,15.6806877 C8.21549382,15.8934596 7.45152165,15.999986 6.61251025,15.999986 C5.43442232,15.999986 4.27971415,15.7978807 3.14810574,15.3940912 C2.01635734,14.9903018 0.986807889,14.3665825 0.0588973965,13.5226526 L2.06591683,11.1104421 Z" id="Fill-4" fill="#454B54" mask="url(#mask-2)"></path>
                </g>
                <polygon id="Fill-7" fill="#454B54" points="48.2460603 0.271340351 61.0541091 0.271340351 61.0541091 3.41927018 56.3495973 3.41927018 56.3495973 15.7834807 52.9505721 15.7834807 52.9505721 3.41927018 48.2460603 3.41927018"></polygon>
                <polygon id="Fill-9" fill="#454B54" points="62.6710365 0.271340351 74.335157 0.271340351 74.335157 3.31105965 66.0483619 3.31105965 66.0483619 6.45898947 73.3427072 6.45898947 73.3427072 9.48790175 66.0483619 9.48790175 66.0483619 12.7437614 74.4540158 12.7437614 74.4540158 15.7834807 62.6710365 15.7834807"></polygon>
                <polygon id="Fill-11" fill="#454B54" points="76.9891798 0.271340351 80.1292077 0.271340351 87.3802934 9.8232 87.3802934 0.271340351 90.735779 0.271340351 90.735779 15.7834807 87.8441086 15.7834807 80.3448055 5.92888421 80.3448055 15.7834807 76.9891798 15.7834807"></polygon>
                <polygon id="Fill-13" fill="#454B54" points="93.5531661 0.271340351 96.6930539 0.271340351 103.94428 9.8232 103.94428 0.271340351 107.299765 0.271340351 107.299765 15.7834807 104.408095 15.7834807 96.9087917 5.92888421 96.9087917 15.7834807 93.5531661 15.7834807"></polygon>
                <polygon id="Fill-15" fill="#454B54" points="110.55903 0.271340351 122.22329 0.271340351 122.22329 3.41927018 113.936355 3.41927018 113.936355 6.45898947 121.230561 6.45898947 121.230561 9.48790175 113.936355 9.48790175 113.936355 12.7437614 122.342009 12.7437614 122.342009 15.7834807 110.55903 15.7834807"></polygon>
                <polygon id="Fill-17" fill="#454B54" points="122.052716 0.271340351 134.860765 0.271340351 134.860765 3.41927018 130.156253 3.41927018 130.156253 15.7834807 126.757228 15.7834807 126.757228 3.41927018 122.052716 3.41927018"></polygon>
                <polygon id="Fill-19" fill="#454B54" points="134.603644 0.271340351 147.411692 0.271340351 147.411692 3.41927018 142.70718 3.41927018 142.70718 15.7834807 139.308155 15.7834807 139.308155 3.41927018 134.603644 3.41927018"></polygon>
            </g>
        </g>
    </g>
</svg>