<?xml version="1.0" encoding="utf-8"?>
<!-- Generator: Adobe Illustrator 22.1.0, SVG Export Plug-In . SVG Version: 6.00 Build 0)  -->
<svg version="1.1" id="Layer_1" xmlns="http://www.w3.org/2000/svg" xmlns:xlink="http://www.w3.org/1999/xlink" x="0px" y="0px"
	 viewBox="0 0 103.3 37.5" style="enable-background:new 0 0 103.3 37.5;" xml:space="preserve">
<style type="text/css">
	.st0{fill:#009AAB;}
</style>
<title>Page 1</title>
<desc>Created with Sketch.</desc>
<path class="st0" d="M4.7,37.5c3.3,0,6.7-2.3,7.8-5.6c1.7,0.3,3.5,0.4,5.3,0.4c2.5,0,5-0.3,7.4-0.8c1.3-0.3,2.5-0.6,3.7-1
	c1.3-0.4,2.7-1,3.9-1.6l2.9-1.7c2.2,1.9,3.5,2.5,4.3,2.2c0.8-0.4,0.4-4.5-0.7-6.5c0,0,1.7-3.1,1.5-6.2c0-1.2-0.2-2.4-0.5-3.6
	c-0.8-2.9-2.5-5.4-4.8-7.1c0,0,2.1-5.7,1.6-6s-4,4.6-4,4.6c-1.7-0.8-3.7-1.3-5.7-1.3c-2.3,0-4.5,0.6-6.4,1.6
	c-2.9,1.6-5.1,4.2-6.2,7.3c0,0-5.5,1.7-5.7,4.1c-0.1,1.2,4.8,2.2,4.8,2.2c2.7,6.1-1.2,9.7-1.2,9.7s0.1-3.9-4.6-6.4
	c-2.7-1.4-7-1.5-5.4-0.6C10,25.7,7.1,35,0.6,36.4C-1.2,36.7,1.4,37.5,4.7,37.5z"/>
<g>
	<path class="st0" d="M54.8,28h-3.6V9.3h3.6v7.3c1.2-1.4,2.4-2,4.2-2c3.8,0,6.6,2.9,6.6,7s-2.6,6.9-6.4,6.9c-2,0-3.2-0.6-4.4-2.1
		C54.8,26.4,54.8,28,54.8,28z M54.8,21.6c0,2.3,1.4,4,3.5,4s3.5-1.6,3.5-4c0-2.3-1.5-4-3.5-4S54.8,19.4,54.8,21.6z"/>
	<path class="st0" d="M67.9,28V9.3h3.6V28H67.9z"/>
	<path class="st0" d="M87.8,21.6c0,3.8-3.1,6.8-7.1,6.8c-4.1,0-7.1-2.9-7.1-6.9c0-4.1,2.9-7,7.1-7C84.9,14.6,87.8,17.5,87.8,21.6z
		 M77.3,21.5c0,2.2,1.4,3.8,3.5,3.8s3.5-1.5,3.5-3.7c0-2.4-1.3-3.8-3.5-3.8C78.7,17.8,77.3,19.2,77.3,21.5z"/>
	<path class="st0" d="M99.8,15h3.5v12.1c0,2.7-0.5,4.2-1.7,5.4c-1.3,1.3-3.2,2-5.4,2c-2.5,0-4.6-0.8-6.4-2.6l2.2-2.2
		c1.2,1.2,2.4,1.8,4,1.8c2.4,0,3.8-1.4,3.8-3.9v-1.3c-1.2,1.5-2.7,2.2-4.6,2.2c-3.6,0-6.2-2.9-6.2-6.9c0-4.2,2.6-7.1,6.5-7.1
		c1.8,0,3.1,0.6,4.2,2.1L99.8,15L99.8,15z M92.9,21.4c0,2.2,1.5,3.9,3.5,3.9c1,0,2.1-0.5,2.7-1.2c0.4-0.5,0.7-1.3,0.7-2.3
		c0-1.4-0.3-2.4-1-3c-0.6-0.6-1.5-1-2.4-1C94.3,17.7,92.9,19.3,92.9,21.4z"/>
</g>
</svg>
